<mxfile host="Electron" agent="Mozilla/5.0 (Windows NT 10.0; Win64; x64) AppleWebKit/537.36 (KHTML, like Gecko) draw.io/27.0.5 Chrome/134.0.6998.205 Electron/35.3.0 Safari/537.36" version="27.0.5">
  <diagram name="Page-1" id="jf8S1W8lq7KJvJnq-485">
    <mxGraphModel dx="946" dy="572" grid="1" gridSize="10" guides="1" tooltips="1" connect="1" arrows="1" fold="1" page="1" pageScale="1" pageWidth="850" pageHeight="1100" math="0" shadow="0">
      <root>
        <mxCell id="0" />
        <mxCell id="1" parent="0" />
        <mxCell id="IUn6R5eHwSJ8Y6R8vKWO-1" value="&amp;lt;interface&amp;gt;TargetInterface" style="swimlane;fontStyle=1;align=center;verticalAlign=top;childLayout=stackLayout;horizontal=1;startSize=26;horizontalStack=0;resizeParent=1;resizeParentMax=0;resizeLast=0;collapsible=1;marginBottom=0;whiteSpace=wrap;html=1;fillColor=#E6E6E6;" vertex="1" parent="1">
          <mxGeometry x="210" y="90" width="160" height="60" as="geometry" />
        </mxCell>
        <mxCell id="IUn6R5eHwSJ8Y6R8vKWO-2" value="" style="line;strokeWidth=1;fillColor=none;align=left;verticalAlign=middle;spacingTop=-1;spacingLeft=3;spacingRight=3;rotatable=0;labelPosition=right;points=[];portConstraint=eastwest;strokeColor=inherit;" vertex="1" parent="IUn6R5eHwSJ8Y6R8vKWO-1">
          <mxGeometry y="26" width="160" height="8" as="geometry" />
        </mxCell>
        <mxCell id="IUn6R5eHwSJ8Y6R8vKWO-3" value="+ operation(data)" style="text;strokeColor=none;fillColor=none;align=left;verticalAlign=top;spacingLeft=4;spacingRight=4;overflow=hidden;rotatable=0;points=[[0,0.5],[1,0.5]];portConstraint=eastwest;whiteSpace=wrap;html=1;" vertex="1" parent="IUn6R5eHwSJ8Y6R8vKWO-1">
          <mxGeometry y="34" width="160" height="26" as="geometry" />
        </mxCell>
        <mxCell id="IUn6R5eHwSJ8Y6R8vKWO-5" value="implements" style="html=1;verticalAlign=bottom;endArrow=block;endSize=8;curved=0;rounded=0;exitX=0.5;exitY=0;exitDx=0;exitDy=0;endFill=0;entryX=0.491;entryY=1.115;entryDx=0;entryDy=0;entryPerimeter=0;" edge="1" parent="1" source="IUn6R5eHwSJ8Y6R8vKWO-18" target="IUn6R5eHwSJ8Y6R8vKWO-3">
          <mxGeometry x="0.1495" y="1" relative="1" as="geometry">
            <mxPoint x="240" y="310" as="sourcePoint" />
            <mxPoint x="273.03999999999996" y="176" as="targetPoint" />
            <mxPoint as="offset" />
          </mxGeometry>
        </mxCell>
        <mxCell id="IUn6R5eHwSJ8Y6R8vKWO-44" style="edgeStyle=orthogonalEdgeStyle;rounded=0;orthogonalLoop=1;jettySize=auto;html=1;entryX=0;entryY=0.25;entryDx=0;entryDy=0;" edge="1" parent="1" source="IUn6R5eHwSJ8Y6R8vKWO-13" target="IUn6R5eHwSJ8Y6R8vKWO-1">
          <mxGeometry relative="1" as="geometry" />
        </mxCell>
        <mxCell id="IUn6R5eHwSJ8Y6R8vKWO-13" value="Client" style="html=1;whiteSpace=wrap;fillColor=#CCFFFF;" vertex="1" parent="1">
          <mxGeometry x="30" y="80" width="110" height="50" as="geometry" />
        </mxCell>
        <mxCell id="IUn6R5eHwSJ8Y6R8vKWO-18" value="Adapter" style="swimlane;fontStyle=1;align=center;verticalAlign=top;childLayout=stackLayout;horizontal=1;startSize=26;horizontalStack=0;resizeParent=1;resizeParentMax=0;resizeLast=0;collapsible=1;marginBottom=0;whiteSpace=wrap;html=1;fillColor=#E6E6E6;" vertex="1" parent="1">
          <mxGeometry x="210" y="240" width="160" height="78" as="geometry" />
        </mxCell>
        <mxCell id="IUn6R5eHwSJ8Y6R8vKWO-19" value="adaptee: Adaptee" style="text;strokeColor=none;fillColor=none;align=left;verticalAlign=top;spacingLeft=4;spacingRight=4;overflow=hidden;rotatable=0;points=[[0,0.5],[1,0.5]];portConstraint=eastwest;whiteSpace=wrap;html=1;" vertex="1" parent="IUn6R5eHwSJ8Y6R8vKWO-18">
          <mxGeometry y="26" width="160" height="26" as="geometry" />
        </mxCell>
        <mxCell id="IUn6R5eHwSJ8Y6R8vKWO-20" value="+ operation(data)" style="text;strokeColor=none;fillColor=none;align=left;verticalAlign=top;spacingLeft=4;spacingRight=4;overflow=hidden;rotatable=0;points=[[0,0.5],[1,0.5]];portConstraint=eastwest;whiteSpace=wrap;html=1;" vertex="1" parent="IUn6R5eHwSJ8Y6R8vKWO-18">
          <mxGeometry y="52" width="160" height="26" as="geometry" />
        </mxCell>
        <mxCell id="IUn6R5eHwSJ8Y6R8vKWO-39" value="Adaptee" style="swimlane;fontStyle=1;align=center;verticalAlign=top;childLayout=stackLayout;horizontal=1;startSize=26;horizontalStack=0;resizeParent=1;resizeParentMax=0;resizeLast=0;collapsible=1;marginBottom=0;whiteSpace=wrap;html=1;fillColor=#E6E6E6;" vertex="1" parent="1">
          <mxGeometry x="550" y="252.99999999999997" width="210" height="52" as="geometry" />
        </mxCell>
        <mxCell id="IUn6R5eHwSJ8Y6R8vKWO-41" value="+ serviceOperation(serviceData)" style="text;strokeColor=none;fillColor=none;align=left;verticalAlign=top;spacingLeft=4;spacingRight=4;overflow=hidden;rotatable=0;points=[[0,0.5],[1,0.5]];portConstraint=eastwest;whiteSpace=wrap;html=1;" vertex="1" parent="IUn6R5eHwSJ8Y6R8vKWO-39">
          <mxGeometry y="26" width="210" height="26" as="geometry" />
        </mxCell>
        <mxCell id="IUn6R5eHwSJ8Y6R8vKWO-46" style="edgeStyle=orthogonalEdgeStyle;rounded=0;orthogonalLoop=1;jettySize=auto;html=1;exitX=1;exitY=0.5;exitDx=0;exitDy=0;entryX=0;entryY=0.5;entryDx=0;entryDy=0;" edge="1" parent="1" source="IUn6R5eHwSJ8Y6R8vKWO-19" target="IUn6R5eHwSJ8Y6R8vKWO-39">
          <mxGeometry relative="1" as="geometry" />
        </mxCell>
        <mxCell id="IUn6R5eHwSJ8Y6R8vKWO-47" value="accepts as input to constructor" style="edgeLabel;html=1;align=center;verticalAlign=middle;resizable=0;points=[];" vertex="1" connectable="0" parent="IUn6R5eHwSJ8Y6R8vKWO-46">
          <mxGeometry x="-0.0968" y="2" relative="1" as="geometry">
            <mxPoint y="-11" as="offset" />
          </mxGeometry>
        </mxCell>
      </root>
    </mxGraphModel>
  </diagram>
</mxfile>
